<svg id="Layer_1" data-name="Layer 1" xmlns="http://www.w3.org/2000/svg" viewBox="0 0 712.58 440.96"><defs><style>.cls-1{fill:#3A7FD1;}.cls-2{fill:#525252;}</style></defs><title>yourplace-logo</title><rect class="cls-1" x="186.22" y="191.2" width="57.19" height="57.19" transform="translate(-4.98 434.6) rotate(-90)"/><rect class="cls-1" x="267.62" y="191.2" width="57.19" height="57.19" transform="translate(76.43 516) rotate(-90)"/><rect class="cls-1" x="186.22" y="273.82" width="57.19" height="57.19" transform="translate(-87.61 517.22) rotate(-90)"/><rect class="cls-1" x="267.62" y="273.82" width="57.19" height="57.19" transform="translate(-6.2 598.63) rotate(-90)"/><polygon class="cls-1" points="396.4 377 396.4 439.13 0 439.13 0 244.31 182.84 0 256.45 0 62.13 256.2 62.13 377 396.4 377"/><path class="cls-2" d="M332.37,0,484.21,205.29,637.88,0h74.7L516.4,256.92V441H453.84v-184L256.45,0Z"/></svg>