<svg id="Layer_1" data-name="Layer 1" xmlns="http://www.w3.org/2000/svg" viewBox="0 0 654.9 85.34"><defs><style>.cls-1{fill:#3A7FD1;}.cls-2{fill:#808080;}</style></defs><title>yourplace-banner-title</title><rect class="cls-1" x="35.31" y="36.26" width="10.84" height="10.84" transform="translate(-0.94 82.41) rotate(-90)"/><rect class="cls-1" x="50.75" y="36.26" width="10.84" height="10.84" transform="translate(14.49 97.85) rotate(-90)"/><rect class="cls-1" x="35.31" y="51.92" width="10.84" height="10.84" transform="translate(-16.61 98.08) rotate(-90)"/><rect class="cls-1" x="50.75" y="51.92" width="10.84" height="10.84" transform="translate(-1.18 113.51) rotate(-90)"/><polygon class="cls-1" points="75.17 71.49 75.17 83.27 0 83.27 0 46.33 34.67 0 48.63 0 11.78 48.58 11.78 71.49 75.17 71.49"/><path class="cls-2" d="M63,0l28.8,38.93L121,0h14.16L97.92,48.72v34.9H86.06V48.72L48.63,0Z"/><path class="cls-2" d="M195.59,52.75c0,19.92-13.25,32.59-34.55,32.59s-34.67-12.67-34.67-32.59S139.73,19.69,161,19.69,195.59,32.82,195.59,52.75Zm-57.36-.23c0,14,8.64,22.46,22.81,22.46s22.69-8.41,22.69-22.46S175.2,30.06,161,30.06,138.23,38.47,138.23,52.52Z"/><path class="cls-2" d="M218.62,21.65V57.7c0,12.56,3.69,18.2,14.86,18.2,13.13,0,22.92-8.87,22.92-22.69V21.65h11.17v62H256.4V73.13c-6.8,8.3-15,12.21-25.45,12.21-15,0-23.5-7-23.5-24.41V21.65Z"/><path class="cls-2" d="M294.64,32.13c5.64-8.17,13.59-12.44,22.8-12.44a9.74,9.74,0,0,1,4.95,1V32.48a27.68,27.68,0,0,0-8.06-1.27c-10.6,0-19.69,9-19.69,22.12V83.62H283.46v-62h11.18Z"/><path class="cls-2" d="M342.55,83.62H330.69V0h38.58C389.88,0,400,7.83,400,24.65s-10.37,24.53-31,24.53H342.55Zm0-44.23h22c16.12,0,23.61-3.8,23.61-14.4,0-11.75-7.26-15.2-22.81-15.2h-22.8Z"/><path class="cls-2" d="M424.67,83.62H413.5V0h11.17Z"/><path class="cls-2" d="M463,85.34c-15.55,0-23.73-7.14-23.73-18.65,0-14.4,10.94-17.4,28.57-19.35,13.7-1.5,20.84-1.16,20.84-8.64,0-6.68-5.18-9.56-16.35-9.56-12.56,0-18.43,3.57-19,12.44H441.71c.81-14.63,10.83-21.89,29.83-21.89,20.62,0,28.33,5.42,28.33,20.51V65.3c0,6.45,1.16,9.56,5.53,9.56a20.41,20.41,0,0,0,3.34-.34v9a58.9,58.9,0,0,1-8.87.81c-6.45,0-9.67-3.57-10.82-10.25C483.4,81.2,474.42,85.34,463,85.34Zm6.91-29.25c-12.09,1.38-18.77,2.42-18.77,10,0,5.87,4.95,9.79,13.7,9.79,14.28,0,23.84-7,23.84-14.86V51.83C485.48,53.79,479.26,55.05,469.93,56.09Z"/><path class="cls-2" d="M567.25,42.27c-2.19-7.6-9-12.21-18.08-12.21-14.17,0-22.81,8.75-22.81,22.8s9,22.12,22,22.12c10.25,0,17.74-5.42,19.23-14.51h11.75c-2.65,15.66-14.51,24.87-31.44,24.87-19.69,0-33.4-12.9-33.4-32.59s13.59-33.06,33.63-33.06c16.35,0,28.1,8.76,30.75,22.58Z"/><path class="cls-2" d="M599,54.94c0,12.09,8.87,20,22.11,20,9.79,0,17.16-3.8,19.69-10.6h13c-4.38,13.36-16.24,21-32.71,21-20.85,0-34-12.67-34-32.59s13.25-33.06,34-33.06c21.19,0,33.75,12.44,33.75,33.06v2.19ZM642.92,47c-1.73-10.48-9.79-16.93-21.77-16.93s-20,6.33-21.88,16.93Z"/></svg>